# xmcd
#
# Track frame offsets:
#	150
#	10842
#	25341
#	40296
#	52449
#	63505
#	76753
#	88090
#	99028
#	112792
#
# Disc length: 1655 seconds
#
# Revision: 1
# Processed by: cddbd v1.5.2PL0 Copyright (c) Steve Scherf et al.
# Submitted via: audiograbber 1.83.01
#
DISCID=7306750a
DTITLE=Charley Pride - The Happiness Of Having You
DYEAR=1975
DGENRE=Country
TTITLE0=The Happiness of Having You
TTITLE1=I Can't Keep My Hands Off Of You
TTITLE2=Everything I Am
TTITLE3=My Eyes Can Only See As Far As You
TTITLE4=I've Got A Woman To Lean On
TTITLE5=Right Back Missing You Again
TTITLE6=Help Me Make It Through The Night
TTITLE7=Oklahoma Morning
TTITLE8=Everything She Touches Turns To Love
TTITLE9=Signs of Love
EXTD=
EXTT0=
EXTT1=
EXTT2=
EXTT3=
EXTT4=
EXTT5=
EXTT6=
EXTT7=
EXTT8=
EXTT9=
PLAYORDER=
